<svg xmlns="http://www.w3.org/2000/svg" version="1.1" viewBox="-5.0 -10.0 110.0 135.0">
 <path d="m49.996 68.434c-3.9492 0-7.1602 3.2109-7.1602 7.1602s3.2109 7.1641 7.1602 7.1641c3.9492 0 7.1602-3.2109 7.1602-7.1641 0-3.9492-3.2109-7.1602-7.1602-7.1602zm0 12.707c-3.0586 0-5.5469-2.4883-5.5469-5.5469s2.4883-5.5469 5.5469-5.5469 5.5469 2.4883 5.5469 5.5469-2.4883 5.5469-5.5469 5.5469zm44.84-45.344c-11.965-11.965-27.891-18.555-44.84-18.555-16.953 0-32.875 6.5898-44.84 18.555-1.1914 1.1914-1.6445 2.75-1.2344 4.2695 0.44141 1.6484 1.7891 2.9961 3.4375 3.4375 0.36719 0.097656 0.73438 0.14844 1.1016 0.14844 1.1484 0 2.2617-0.47656 3.168-1.3828 10.246-10.246 23.871-15.891 38.367-15.891 13.453 0 26.152 4.8633 36.102 13.754-1.207 0.082032-2.3945 0.57813-3.3164 1.5039l-3.5273 3.5273c-8.6758-7.1719-19.645-10.887-30.969-10.469-11.641 0.42969-22.582 5.1953-30.805 13.422-2.1016 2.1016-1.5742 4.8281 0.035156 6.4375 0.86328 0.86328 2.0508 1.418 3.2891 1.4141 1.0664 0 2.1758-0.41016 3.1484-1.3828 9.0625-9.0625 22.316-12.758 34.758-9.7422-0.12891 1.4727 0.37109 2.9883 1.4961 4.1133l7.625 7.625-0.99219 0.99219c-11.297-8.2578-27.094-7.0781-37.035 2.8594-1.1914 1.1914-1.6445 2.75-1.2383 4.2695 0.44141 1.6484 1.7891 2.9961 3.4375 3.4375 0.36719 0.097656 0.73438 0.14844 1.1016 0.14844 1.1484 0 2.2617-0.47656 3.168-1.3828 6.4219-6.4219 16.363-7.5156 23.992-2.7578l-0.058594 0.058593c-0.97656 0.97656-1.5117 2.2773-1.5117 3.6641 0 1.3867 0.53906 2.6875 1.5117 3.6641 0.97656 0.97656 2.2773 1.5117 3.6641 1.5117 1.3867 0 2.6875-0.53516 3.6641-1.5117l7.625-7.625 7.625 7.625c0.97656 0.97656 2.2773 1.5117 3.6641 1.5117s2.6875-0.53516 3.6641-1.5117c0.97656-0.97656 1.5117-2.2773 1.5117-3.6641 0-1.3867-0.53516-2.6875-1.5117-3.6641l-7.625-7.625 7.625-7.625c1.4336-1.4336 1.8477-3.5078 1.2461-5.3125 1.4648 0.054688 2.8594-0.67578 3.75-1.7422 1.3203-1.5781 1.75-4.082-0.27344-6.1055zm-35.742 7.4805c-6.1719-1.4961-12.66-1.4531-18.812 0.14844-6.5898 1.7148-12.633 5.1797-17.477 10.023-1.4219 1.4219-3.1133 1.0078-4.1562-0.035157-1.043-1.043-1.457-2.7305-0.035157-4.1562 16.055-16.055 42.016-17.281 59.488-2.9531l-2.9531 2.9531-7.625-7.625c-2.0195-2.0195-5.3047-2.0195-7.3242 0-0.48438 0.48828-0.85156 1.0469-1.1055 1.6445zm-23.965 22.492c-1.0078 1.0078-2.0312 1-2.7109 0.81641-1.082-0.28906-2.0078-1.2148-2.2969-2.2969-0.18359-0.67969-0.1875-1.7031 0.81641-2.7109 9.3203-9.3203 24.094-10.473 34.738-2.8438l-4.25 4.25c-8.2969-5.3828-19.254-4.2578-26.297 2.7852zm53.836-17.953-8.1992 8.1992c-0.31641 0.31641-0.31641 0.82812 0 1.1406l8.1992 8.1992c1.3906 1.3906 1.3906 3.6523 0 5.043-0.67188 0.67187-1.5664 1.0391-2.5195 1.0391-0.95703 0-1.8516-0.36719-2.5234-1.0391l-8.1992-8.1992c-0.15625-0.15625-0.36328-0.23828-0.57031-0.23828-0.20703 0-0.41406 0.078124-0.57031 0.23828l-8.1992 8.1992c-0.67187 0.67187-1.5664 1.0391-2.5195 1.0391-0.95703 0-1.8516-0.36719-2.5195-1.0391-0.67188-0.67188-1.0391-1.5664-1.0391-2.5195 0-0.95703 0.36719-1.8516 1.0391-2.5195l8.1992-8.1992c0.31641-0.31641 0.31641-0.82812 0-1.1406l-8.1992-8.1992c-1.3906-1.3906-1.3906-3.6523 0-5.043 0.67188-0.67188 1.5664-1.0391 2.5195-1.0391 0.95703 0 1.8516 0.36719 2.5195 1.0391l8.1992 8.1992c0.31641 0.31641 0.82812 0.31641 1.1406 0l8.1992-8.1992c1.3906-1.3906 3.6523-1.3906 5.043 0 1.3906 1.3867 1.3906 3.6484 0 5.0391zm4.9023-6.9492c-0.85156 1.0156-2.4102 1.6602-3.8359 0.69141-0.17969-0.17188-0.36719-0.32812-0.5625-0.46875-10.547-10.527-24.562-16.328-39.473-16.328-14.926 0-28.957 5.8125-39.508 16.363-1.0078 1.0078-2.0312 1-2.7109 0.81641-1.082-0.28906-2.0078-1.2109-2.2969-2.2969-0.18359-0.67969-0.1875-1.7031 0.81641-2.7109 11.66-11.66 27.176-18.082 43.699-18.082 16.52 0 32.039 6.4219 43.699 18.082 1.3906 1.3984 0.96094 2.9922 0.17188 3.9336z"/>
</svg>