<svg width="45" height="31" viewBox="0 0 45 31" fill="none" xmlns="http://www.w3.org/2000/svg">
<path d="M41.0203 7.12406C41.741 6.3668 42.1875 5.34516 42.1875 4.21875C42.1875 1.89211 40.2954 0 37.9688 0C35.6421 0 33.75 1.89211 33.75 4.21875C33.75 5.34656 34.1972 6.36961 34.92 7.12687C34.1037 7.28719 33.3408 7.65422 32.7002 8.19352C32.0716 7.66336 31.3102 7.28789 30.4734 7.12406C31.1941 6.3668 31.6406 5.34516 31.6406 4.21875C31.6406 1.89211 29.7485 0 27.4219 0C25.0952 0 23.2031 1.89211 23.2031 4.21875C23.2031 5.34516 23.6496 6.3675 24.371 7.12477C23.7016 7.25625 23.0667 7.52836 22.5035 7.92281C21.9509 7.53469 21.3152 7.25836 20.6297 7.12406C21.3504 6.3668 21.7969 5.34516 21.7969 4.21875C21.7969 1.89211 19.9048 0 17.5781 0C15.2515 0 13.3594 1.89211 13.3594 4.21875C13.3594 5.34656 13.8066 6.36961 14.5294 7.12687C13.713 7.28719 12.9502 7.65422 12.3096 8.19352C11.6817 7.66336 10.9195 7.28789 10.0828 7.12406C10.8035 6.3668 11.25 5.34516 11.25 4.21875C11.25 1.89211 9.35789 0 7.03125 0C4.70461 0 2.8125 1.89211 2.8125 4.21875C2.8125 5.34516 3.25898 6.3668 3.97969 7.12406C1.71492 7.56563 0 9.5618 0 11.9531V18.2812C0 19.4442 0.946406 20.3906 2.10938 20.3906H2.19656L3.52195 30.3272C3.56836 30.6766 3.86648 30.9375 4.21875 30.9375H9.84375C10.196 30.9375 10.4941 30.6766 10.5405 30.3272L11.8659 20.3906H11.9531C12.0909 20.3906 12.2259 20.3759 12.356 20.3498C12.4566 20.3653 12.5606 20.3906 12.6562 20.3906H12.7434L14.0688 30.3272C14.1152 30.6766 14.4134 30.9375 14.7656 30.9375H20.3906C20.7429 30.9375 21.041 30.6766 21.0874 30.3272L22.4128 20.3906H22.5H22.5872L23.9126 30.3272C23.959 30.6766 24.2571 30.9375 24.6094 30.9375H30.2344C30.5866 30.9375 30.8848 30.6766 30.9312 30.3272L32.2566 20.3906H32.3438C32.4816 20.3906 32.6166 20.3759 32.7466 20.3498C32.8472 20.3653 32.9512 20.3906 33.0469 20.3906H33.1341L34.4595 30.3272C34.5059 30.6766 34.804 30.9375 35.1562 30.9375H40.7812C41.1335 30.9375 41.4316 30.6766 41.478 30.3272L42.8034 20.3906H42.8906C44.0536 20.3906 45 19.4442 45 18.2812V11.9531C45 9.5618 43.2844 7.56492 41.0203 7.12406ZM37.9688 1.40625C39.5198 1.40625 40.7812 2.66766 40.7812 4.21875C40.7812 5.76984 39.5198 7.03125 37.9688 7.03125C36.4177 7.03125 35.1562 5.76984 35.1562 4.21875C35.1562 2.66766 36.4177 1.40625 37.9688 1.40625ZM27.4219 1.40625C28.973 1.40625 30.2344 2.66766 30.2344 4.21875C30.2344 5.76984 28.973 7.03125 27.4219 7.03125C25.8708 7.03125 24.6094 5.76984 24.6094 4.21875C24.6094 2.66766 25.8708 1.40625 27.4219 1.40625ZM17.5781 1.40625C19.1292 1.40625 20.3906 2.66766 20.3906 4.21875C20.3906 5.76984 19.1292 7.03125 17.5781 7.03125C16.027 7.03125 14.7656 5.76984 14.7656 4.21875C14.7656 2.66766 16.027 1.40625 17.5781 1.40625ZM7.03125 1.40625C8.58234 1.40625 9.84375 2.66766 9.84375 4.21875C9.84375 5.76984 8.58234 7.03125 7.03125 7.03125C5.48016 7.03125 4.21875 5.76984 4.21875 4.21875C4.21875 2.66766 5.48016 1.40625 7.03125 1.40625ZM10.5483 19.6312L9.22781 29.5312H4.83469L3.51633 19.6453C3.49453 19.2769 3.18867 18.9844 2.81461 18.9844H2.10938C1.72125 18.9844 1.40625 18.6694 1.40625 18.2812V11.9531C1.40625 10.0146 2.98336 8.4375 4.92188 8.4375H9.14062C11.0791 8.4375 12.6562 10.0146 12.6562 11.9531V18.2812C12.6562 18.6694 12.3413 18.9844 11.9531 18.9844H11.2479C10.8787 18.9844 10.5771 19.2691 10.5483 19.6312ZM21.1001 19.5947L19.7747 29.5312H15.3816L14.0562 19.5947C14.0351 19.4344 13.9556 19.2966 13.848 19.1904C13.9816 18.9141 14.0625 18.6082 14.0625 18.2812V11.9531C14.0625 10.9519 13.7602 10.0209 13.2448 9.24328C13.8698 8.72859 14.6531 8.4375 15.4688 8.4375H19.6875C21.626 8.4375 23.2031 10.0146 23.2031 11.9531V18.2812C23.2031 18.6694 22.8881 18.9844 22.5 18.9844H21.7969C21.4446 18.9844 21.1465 19.2452 21.1001 19.5947ZM30.9438 19.5947L29.6184 29.5312H25.2253L23.9302 19.8218C24.3457 19.4372 24.6094 18.8909 24.6094 18.2812V11.9531C24.6094 10.8084 24.2128 9.75656 23.5547 8.91914C24.0877 8.60906 24.6902 8.4375 25.3125 8.4375H29.5312C31.4698 8.4375 33.0469 10.0146 33.0469 11.9531V18.2812C33.0469 18.6694 32.7319 18.9844 32.3438 18.9844H31.6406C31.2884 18.9844 30.9902 19.2452 30.9438 19.5947ZM43.5938 18.2812C43.5938 18.6694 43.2788 18.9844 42.8906 18.9844H42.1875C41.8352 18.9844 41.5371 19.2452 41.4907 19.5947L40.1653 29.5312H35.7722L34.4468 19.5947C34.4257 19.4344 34.3462 19.2966 34.2387 19.1904C34.3723 18.9141 34.4531 18.6082 34.4531 18.2812V11.9531C34.4531 10.9519 34.1508 10.0209 33.6354 9.24328C34.2605 8.72859 35.0438 8.4375 35.8594 8.4375H40.0781C42.0166 8.4375 43.5938 10.0146 43.5938 11.9531V18.2812Z" fill="white"/>
</svg>
